<?xml version="1.0" encoding="utf-8"?>
<!-- Generator: Adobe Illustrator 16.0.0, SVG Export Plug-In . SVG Version: 6.00 Build 0)  -->
<!DOCTYPE svg PUBLIC "-//W3C//DTD SVG 1.1//EN" "http://www.w3.org/Graphics/SVG/1.1/DTD/svg11.dtd" [
	<!ENTITY ns_extend "http://ns.adobe.com/Extensibility/1.0/">
	<!ENTITY ns_ai "http://ns.adobe.com/AdobeIllustrator/10.0/">
	<!ENTITY ns_graphs "http://ns.adobe.com/Graphs/1.0/">
	<!ENTITY ns_vars "http://ns.adobe.com/Variables/1.0/">
	<!ENTITY ns_imrep "http://ns.adobe.com/ImageReplacement/1.0/">
	<!ENTITY ns_sfw "http://ns.adobe.com/SaveForWeb/1.0/">
	<!ENTITY ns_custom "http://ns.adobe.com/GenericCustomNamespace/1.0/">
	<!ENTITY ns_adobe_xpath "http://ns.adobe.com/XPath/1.0/">
]>
<svg version="1.1"
	 id="svg2" xmlns:x="&ns_extend;" xmlns:i="&ns_ai;" xmlns:graph="&ns_graphs;" inkscape:export-ydpi="144" inkscape:export-xdpi="144" sodipodi:docbase="C:\Documents and Settings\Nicolas\Mes documents\Mes images\Antoine\HÃ©raldique" sodipodi:docname="Copie (2) de Copie de Blason_Vide_3D.svg" inkscape:version="0.44" sodipodi:version="0.32" xmlns:rdf="http://www.w3.org/1999/02/22-rdf-syntax-ns#" xmlns:svg="http://www.w3.org/2000/svg" xmlns:sodipodi="http://sodipodi.sourceforge.net/DTD/sodipodi-0.dtd" xmlns:inkscape="http://www.inkscape.org/namespaces/inkscape" xmlns:dc="http://purl.org/dc/elements/1.1/" xmlns:cc="http://web.resource.org/cc/" inkscape:export-filename="/Users/olivier/Desktop/Blason Rouge/Blason_Vide_3D.png"
	 xmlns="http://www.w3.org/2000/svg" xmlns:xlink="http://www.w3.org/1999/xlink" x="0px" y="0px" width="600px" height="660px"
	 viewBox="0 0 600 660" enable-background="new 0 0 600 660" xml:space="preserve">
<metadata  id="metadata49">
	<rdf:RDF>
		<cc:Work  rdf:about="">
			<dc:format>image/svg+xml</dc:format>
			<dc:type  rdf:resource="http://purl.org/dc/dcmitype/StillImage"></dc:type>
			<dc:title>Gabarit d&apos;un blason en pointe pour le projet Blasons de Wikipédia</dc:title>
			<dc:date>03-AUG-2006</dc:date>
			<dc:creator>
				<cc:Agent>
					<dc:title>Jérôme BLUM (wagner51)</dc:title>
				</cc:Agent>
			</dc:creator>
			<cc:license  rdf:resource="http://web.resource.org/cc/PublicDomain"></cc:license>
			<dc:language>fr</dc:language>
			<dc:subject>
				<rdf:Bag>
					<rdf:li>gabarit modèle blason projet wikipédia</rdf:li>
				</rdf:Bag>
			</dc:subject>
		</cc:Work>
		<cc:License  rdf:about="http://web.resource.org/cc/PublicDomain">
			<cc:permits  rdf:resource="http://web.resource.org/cc/Reproduction"></cc:permits>
			<cc:permits  rdf:resource="http://web.resource.org/cc/Distribution"></cc:permits>
			<cc:permits  rdf:resource="http://web.resource.org/cc/DerivativeWorks"></cc:permits>
		</cc:License>
	</rdf:RDF>
	<sfw  xmlns="&ns_sfw;">
		<slices></slices>
		<sliceSourceBounds  y="150.396" x="679.5" height="660.103" width="600" bottomLeftOrigin="true"></sliceSourceBounds>
	</sfw>
</metadata>
<sodipodi:namedview  id="base" height="660px" inkscape:window-width="1024" inkscape:pageopacity="0.0" inkscape:pageshadow="2" inkscape:window-height="712" inkscape:window-x="-4" inkscape:window-y="-4" inkscape:current-layer="layer3" inkscape:cy="525.3147" inkscape:cx="387.14924" inkscape:zoom="0.44547727" showgrid="false" pagecolor="#ffffff" bordercolor="#666666" borderopacity="1.0" gridtolerance="10.0" objecttolerance="10.0" guidetolerance="10.0">
	</sodipodi:namedview>
<desc  id="desc4">Flag of Canton of Valais (Wallis)</desc>
<g id="layer3" inkscape:label="Fond Ã©cu" inkscape:groupmode="layer">
	<path id="path2855" sodipodi:nodetypes="cccccc" d="M300,658.5c0,0,298.5-112.32,298.5-397.771s0-258.552,0-258.552H1.5v258.552
		C1.5,546.179,300,658.5,300,658.5z"/>
	<path id="path1897" fill="#2B5FD2" stroke="#000000" stroke-width="1.1264" d="M1.684,202.5h596.552l0.28-200.782L1.684,2.429
		V202.5z"/>
	<g id="g2055">
		<g id="g1878" transform="matrix(0.173022,0,0,0.150152,75.87466,10.22582)">
			<path id="path1876" sodipodi:nodetypes="ccscscc" fill="#FCEF3C" stroke="#000000" stroke-width="3" d="M349.234,728.575
				c1.422-61.955,16.749-119.534,45.289-174.107c74.714-157.184,302.922-153.432,252.615,38.815
				c-18.538,70.84-81.51,112.471-156.32,119.612c5.401-18.666,35.101-84.654,11.125-97.557c-38.338,1.444-85.944,67.705-97.393,99.3
				c-1.651,4.533-1.188,9.775-3.034,14.237"/>
			<g id="g1913" transform="translate(-38.53215,-48.5769)">
				<g id="g13018" transform="translate(0,4)">
					<path id="path1902" sodipodi:nodetypes="ccscscc" fill="#FCEF3C" stroke="#000000" stroke-width="3" d="M292.727,777.249
						c-1.425-61.955-16.752-119.54-45.292-174.107C172.724,445.957-55.483,449.71-5.18,641.957
						c18.538,70.833,81.51,112.471,156.32,119.612c-5.399-18.666-35.101-84.654-11.125-97.564
						c38.338,1.45,85.944,67.705,97.393,99.3c1.654,4.54,1.191,9.782,3.037,14.243"/>
					<path id="path3734" sodipodi:nodetypes="csccccsccc" fill="#FCEF3C" stroke="#000000" stroke-width="3" d="M335.829,176.998
						c-78.713,84.849-131.565,182.959-108.78,298.031c12.57,63.484,43.042,122.278,64.53,183.44
						c13.439,38.366,16.873,78.449,15.282,118.779h66.782c-3.197-40.629,3.807-79.997,15.282-118.779
						c20.474-61.539,51.627-119.911,64.532-183.44c24.126-118.779-32.508-208.357-108.438-297.654l-4.639-5.918L335.829,176.998z"/>
					<path id="path6395" sodipodi:nodetypes="cssscccssscc" fill="#FCEF3C" stroke="#000000" stroke-width="3" d="M273.548,824.278
						c-13.961,39.134-70.888,110.793-101.123,131.221c-7.843,5.294,37.486-3.05,57.779-7.499
						c26.621-5.834,61.219-34.197,60.407-24.188c-0.076,45.839,12.812,122.324,46.406,157.464l3.183,3.389l3.285-3.389
						c33.58-39.166,46.24-108.042,46.406-157.464c-0.81-10.009,33.789,18.354,60.407,24.188
						c20.296,4.449,65.625,12.793,57.782,7.499c-30.236-20.429-87.132-92.088-101.095-131.221H273.548z"/>
					
						<rect id="rect4623" x="181.557" y="775.259" fill="#FCEF3C" stroke="#000000" stroke-width="3" width="317.887" height="51.504"/>
				</g>
			</g>
		</g>
		<g id="g1920" transform="matrix(0.173022,0,0,0.150152,399.1235,10.22582)">
			<path id="path1922" sodipodi:nodetypes="ccscscc" fill="#FCEF3C" stroke="#000000" stroke-width="3" d="M464.827,728.575
				c1.422-61.955,16.752-119.534,45.289-174.107c74.712-157.184,302.922-153.432,252.615,38.815
				c-18.535,70.84-81.507,112.471-156.32,119.612c5.401-18.666,35.101-84.654,11.125-97.557c-38.341,1.444-85.944,67.705-97.39,99.3
				c-1.654,4.533-1.191,9.775-3.036,14.237"/>
			<g id="g1924" transform="translate(-38.53215,-48.5769)">
				<g id="g1926" transform="translate(0,4)">
					<path id="path1928" sodipodi:nodetypes="ccscscc" fill="#FCEF3C" stroke="#000000" stroke-width="3" d="M408.317,777.249
						c-1.422-61.955-16.752-119.54-45.289-174.107C288.317,445.957,60.112,449.71,110.413,641.957
						c18.535,70.833,81.513,112.471,156.32,119.612c-5.401-18.666-35.101-84.654-11.125-97.564
						c38.335,1.45,85.943,67.705,97.39,99.3c1.654,4.54,1.191,9.782,3.037,14.243"/>
					<path id="path1930" sodipodi:nodetypes="csccccsccc" fill="#FCEF3C" stroke="#000000" stroke-width="3" d="M451.421,176.998
						c-78.713,84.849-131.565,182.959-108.78,298.031c12.57,63.484,43.042,122.278,64.53,183.44
						c13.439,38.366,16.87,78.449,15.279,118.779h66.782c-3.195-40.629,3.81-79.997,15.284-118.779
						c20.471-61.539,51.627-119.911,64.53-183.44c24.129-118.779-32.505-208.357-108.435-297.654l-4.639-5.918L451.421,176.998z"/>
					<path id="path1932" sodipodi:nodetypes="cssscccssscc" fill="#FCEF3C" stroke="#000000" stroke-width="3" d="M389.138,824.278
						C375.18,863.412,318.253,935.071,288.018,955.5c-7.845,5.294,37.483-3.05,57.779-7.499
						c26.618-5.834,61.216-34.197,60.404-24.188c-0.073,45.839,12.812,122.324,46.406,157.464l3.183,3.389l3.291-3.389
						c33.577-39.166,46.237-108.042,46.406-157.464c-0.813-10.009,33.786,18.354,60.404,24.188
						c20.296,4.449,65.625,12.793,57.779,7.499c-30.236-20.429-87.129-92.088-101.092-131.221H389.138z"/>
					
						<rect id="rect1934" x="297.15" y="775.259" fill="#FCEF3C" stroke="#000000" stroke-width="3" width="317.884" height="51.504"/>
				</g>
			</g>
		</g>
		<g id="g1970" transform="matrix(0.173022,0,0,0.150152,237.3145,10.22582)">
			<path id="path1972" sodipodi:nodetypes="ccscscc" fill="#FCEF3C" stroke="#000000" stroke-width="3" d="M407.027,728.575
				c1.428-61.955,16.752-119.534,45.294-174.107c74.712-157.184,302.916-153.432,252.61,38.815
				c-18.535,70.84-81.507,112.471-156.32,119.612c5.407-18.666,35.107-84.654,11.13-97.557c-38.341,1.444-85.949,67.705-97.395,99.3
				c-1.648,4.533-1.191,9.775-3.037,14.237"/>
			<g id="g1974" transform="translate(-38.53215,-48.5769)">
				<g id="g1976" transform="translate(0,4)">
					<path id="path1978" sodipodi:nodetypes="ccscscc" fill="#FCEF3C" stroke="#000000" stroke-width="3" d="M350.523,777.249
						c-1.425-61.955-16.752-119.54-45.292-174.107C230.517,445.957,2.313,449.71,52.616,641.957
						c18.538,70.833,81.51,112.471,156.32,119.612c-5.399-18.666-35.101-84.654-11.125-97.564
						c38.338,1.45,85.944,67.705,97.393,99.3c1.654,4.54,1.191,9.782,3.037,14.243"/>
					<path id="path1980" sodipodi:nodetypes="csccccsccc" fill="#FCEF3C" stroke="#000000" stroke-width="3" d="M393.624,176.998
						c-78.713,84.849-131.565,182.959-108.78,298.031c12.57,63.484,43.039,122.278,64.53,183.44
						c13.436,38.366,16.873,78.449,15.282,118.779h66.782c-3.2-40.629,3.81-79.997,15.279-118.779
						c20.477-61.539,51.627-119.911,64.535-183.44c24.123-118.779-32.51-208.357-108.438-297.654l-4.642-5.918L393.624,176.998z"/>
					<path id="path1982" sodipodi:nodetypes="cssscccssscc" fill="#FCEF3C" stroke="#000000" stroke-width="3" d="M331.344,824.278
						c-13.961,39.134-70.888,110.793-101.126,131.221c-7.84,5.294,37.488-3.05,57.782-7.499
						c26.621-5.834,61.219-34.197,60.407-24.188c-0.076,45.839,12.812,122.324,46.406,157.464l3.183,3.389l3.285-3.389
						c33.577-39.166,46.237-108.042,46.406-157.464c-0.813-10.009,33.786,18.354,60.404,24.188
						c20.296,4.449,65.63,12.793,57.785,7.499c-30.236-20.429-87.134-92.088-101.098-131.221H331.344z"/>
					
						<rect id="rect1984" x="239.35" y="775.259" fill="#FCEF3C" stroke="#000000" stroke-width="3" width="317.89" height="51.504"/>
				</g>
			</g>
		</g>
	</g>
	<g id="g2021" transform="matrix(0.753126,0,0,0.760407,55.19281,243.767)">
		<g id="layer6" transform="translate(-8.979625,-29.54435)" inkscape:label="corps">
			
				<path id="path5419" sodipodi:nodetypes="ccccccccccccccccccccccccccccccccccccccccccc" fill="#FCEF3C" stroke="#000000" stroke-width="3" d="
				M272.352,87.954c7.313-15.523,16.485-29.805,37.003-36.526c-7.436-1.833-14.638-3.836-28.886-0.715
				c2.15-2.228,3.158-4.456,7.639-6.685c12.969-1.377,23.837,1.479,35.093,2.387c-7.779-2.62-15.296-6.294-22.44-11.459
				c14.68-0.855,26.978,3.843,39.868,7.162c-0.493-3.816-4.457-6.764-10.027-9.311c8.135-1.617,16.706-1.924,26.737,2.149
				l9.072,9.55c1.634-3.207-0.53-7.173-1.909-10.982c11.47,4.955,12.842,11.522,15.995,17.665c0.346-2.459,0.102-5.066,2.864-6.922
				c1.989-4.036,3.978-4.202,5.967-5.968c-1.566,5.81-3.029,11.575-0.239,15.516c3.161,0.068,5.669-0.95,6.924-4.058
				c1.802,4.031,2.793,7.739,1.432,10.504c8.985,2.666,18.078,4.783,27.692,4.297c16.836-0.899,34.808-4.129,47.746-10.982
				c16.727-5.21,27.132-7.178,35.809-9.548c20.525-1.906,35.277,1.008,52.042,2.864c21.688,3.753,29.169,12.24,40.106,19.576
				c5.886,5.093,11.63,11.856,15.04,16.95c5.293,16.915,2.7,28.386-2.149,38.674c-2.169,6.773-3.981,14.083-8.594,17.189
				c-8.725,8.429-18.489,14.09-29.125,17.426c-12.724,4.923-25.491,2.809-40.583,2.626c-17.335-0.728-38.104,1.738-52.044-2.387
				c-14.813-14.458-35.052-24.973-56.817-34.376c12.169-0.95,23.292-0.851,31.035,2.625c18.697,9.967,38.81,12.848,58.727,16.711
				c23.718,3.649,37.174,2.72,47.029-1.193c13.364-4.295,19.107-5.82,24.828-11.459c7.706-8.616,5.63-20.243,5.491-31.273
				c-1.948-14.688-11.024-17.592-19.576-21.486c-14.694-11.486-21.83-11.436-34.615-12.653c-16.509,0.2-34.738,2.269-49.894,5.969
				c-16.092,5.592-31.373,12.018-48.223,15.755c-13.004,7.641-28.545,9.366-45.358,8.117c-17.098,0.754-24.961-5.088-33.422-10.504
				c-8.721-7.085-14.739-11.263-26.26-13.368c-9.393-1.501-18.236-2.182-29.363-1.194C289.533,70.829,282,80.951,272.352,87.954z"/>
			
				<path id="path3067" sodipodi:nodetypes="ccccccccccccccccccccccccccccccccccccccccc" fill="#FCEF3C" stroke="#000000" stroke-width="3" d="
				M138.58,156.537c-26.219-12.605-32.455-32.105-53.281-47.116c-1.563-3.645-2.348-7.387-0.337-11.48
				c1.766-4.648,6.052-6.777,10.465-8.777c2.154-0.478,2.567-2.115,2.026-4.39c-4.727-8.019-9.453-9.356-14.18-12.83
				c-5.404-2.072-5.641-0.01-6.752,1.351c1.366,4.731,2.317,9.325,1.013,13.166c-0.035,4.821-2.58,6.057-5.739,6.415
				c-7.798,0.833-8.716-4.065-11.479-7.427c1.566-5.45,0.586-11.919,0-18.231c0.499-3.674-2.547-4.311-5.064-5.402
				c-8.131,0.238-13.107,3.279-17.218,7.09c-0.238,3.181-0.871,6.462,2.363,8.777c4.618,1.161,8.534,2.789,10.466,5.741
				c0.718,9.604-3.303,9.298-7.427,8.777c-10.701-5.986-17.96-2.707-23.295,3.376c14.975,7.315,16.39,14.63,9.791,21.945
				c-2.327,6.358,2.165,5.372,5.402,5.739c13.364-10.245,15.694-7.157,18.568-4.726c4.223,6.277,1.041,9.059-0.169,12.829
				c-14.378-2.152-14.873,3.831-12.323,11.479c16.353,6.931,14.316,10.255,13.167,14.18c5.497,6.995,7.084,5.192,9.115,4.39
				c-0.243-5.19-0.984-10.711,1.351-14.18c3.477-2.229,5.009-0.565,6.752,0.674c0.769,2.792,1.314,5.521-1.013,7.428
				c3.763,0.345,7.236,1.04,8.778,4.051c-4.429,1.088-6.033,3.304-3.714,7.09c6.15-0.164,11.174,0.959,14.18,4.388
				c-7.878,0.338-10.128,2.927-6.752,7.766c6.306-4.978,15.421-0.545,16.543,4.051c-6.887,0.615-8.455,4.268-9.116,8.44
				c9.699-4.582,12.8,4.763,18.906,7.766c-7.847-1.343-11.845,0.556-11.141,6.414c18.929-0.999,19.205,3.146,26.334,5.403
				l-11.817,8.44c16.677-1.22,19.618-1.689,28.205,4.283l14.344-13.028c12.777-17.115,8.296-33.571,8.174-53.031L138.58,156.537z"/>
			<path id="path3954" sodipodi:nodetypes="cccccc" fill="#E20909" stroke="#000000" stroke-width="3" d="M94.466,79.021
				c2.93,0.065,2.805-2.334,3.82-4.775c1.765-4.758,0.909-9.23,0.209-11.697c-1.442-6.206-6.1-5.831-10.027-6.446
				c7.058,9.457,1.266,12.489-1.194,17.187L94.466,79.021z"/>
			<path id="path3956" sodipodi:nodetypes="cccccc" fill="#E20909" stroke="#000000" stroke-width="3" d="M53.902,61.564
				c0.322-2.633,0.908-5.658-0.337-7.681c-3.092-4.594-7.573-6.854-13.927-6.751c-8.417-0.258-10.241,5.477-14.095,9.369
				c11.293-3.202,12.421,4.297,15.615,9.622L53.902,61.564z"/>
			<path id="path3958" sodipodi:nodetypes="ccccccc" fill="#E20909" stroke="#000000" stroke-width="3" d="M22.757,97.014
				c-6.408,2.206-9.662,5.998-11.563,12.576c-2.424,7.813,1.951,15.013,3.714,22.198c1.133-10.767,4.555-13.909,8.356-15.784
				l8.946-0.423l1.266-8.693C30.825,102.675,27.209,99.426,22.757,97.014z"/>
			<path id="path3960" sodipodi:nodetypes="cccccccc" fill="#E20909" stroke="#000000" stroke-width="3" d="M41.664,143.182
				c-0.167,2.979-0.045,6.121-4.136,6.921c-9.52,0.622-9.763-3.039-14.096-4.811c-1.931,6.129-0.681,11.679,4.811,16.459
				c12.942,5.49,19.777,0.625,26.924-4.137c0.736-2.114,0.389-4.328-1.35-6.668l-5.148-5.064L41.664,143.182z"/>
			
				<path id="path4866" sodipodi:nodetypes="cccccccccccccccccccccccccccccccccccc" fill="#FCEF3C" stroke="#000000" stroke-width="3" d="
				M411.63,165.697c0.423,3.384-5.838,8.869-8.594,10.982c-26.468,8.155-37.42,21.853-46.312,36.286
				c-5.677,25.476,7.544,33.509,17.666,44.403c8.53,6.661-0.975,15.975-13.846,25.783c-5.412,5.727-10.823,3.595-16.234,3.342
				c-0.724-8.81-1.224-18.529-4.059-21.247c-5.526-4.745-8.355-3.103-11.459-1.432c-3.884,4.79-9.086,8.022-9.787,14.085
				c-2.089,5.786,4.652,9.592,11.22,15.995c-13.188,0.683-27.99-0.057-30.796,9.787l-0.239,3.819
				c12.941-5.212,13.356,6.277,15.279,15.757c9.013-5.534,18.357-13.062,25.543-7.64c-2.995,8.355-2.667,13.512-1.432,20.054
				c1.463,3.84,2.446,7.134,6.683,8.117l3.82-8.355c12.822-7.185,12.666,2.597,18.143,5.014c-1.534-8.594-4.214-17.189,0.956-25.783
				c7.986-0.407,10.415,5.247,11.459,12.414c1.307-7.951,4.903-10.184,10.026-8.594c0.477,6.416,3.281,7.712,6.924,7.162
				c4.665-5.807,1.307-13.025,2.147-20.054c0.183-5.986,6.739-4.892,12.414-4.774c2.945,5.268,1.369,9.632,1.432,14.323
				c3.644-5.602,6.325-11.951,4.297-21.963c5.524,1.548,8.307,6.751,10.027,13.369c1.887-6.89,4.184-13.436,2.387-23.395
				c2.993,0.126,5.76,2.273,8.117,8.117c1.177-7.78,3.602-15.221-1.91-24.827c6.329,2.344,11.176,2.908,14.323,1.432
				c-1.389-6.916-6.323-7.923-11.459-8.594c1.151-5.615,2.075-11.281-2.387-18.143c-17.185-1.7-19.348-4.934-20.053-9.548
				c-0.822-12.061,10.089-16.299,22.44-19.576L411.63,165.697z"/>
			<path id="path5753" sodipodi:nodetypes="cccccc" fill="#E20909" stroke="#000000" stroke-width="3" d="M328.315,263.814
				c-3.379-4.008-7.285-6.173-11.936-5.729c-16.167,3.087-13.43,14.394-15.995,23.395c4.217-5.635,8.435-10.838,12.652-8.355
				l7.162,1.91L328.315,263.814z"/>
			<path id="path5755" sodipodi:nodetypes="ccccccc" fill="#E20909" stroke="#000000" stroke-width="3" d="M302.055,306.546
				l-8.482,7.206c-0.428,6.168-0.155,10.968,1.558,14.28l10.027,10.265c-3.749-14.964-0.386-20.682,8.594-19.098l-2.864-10.265
				L302.055,306.546z"/>
			<path id="path5757" sodipodi:nodetypes="cccccc" fill="#E20909" stroke="#000000" stroke-width="3" d="M346.458,341.161
				c2.857,7.093,9.721,14.695,13.847,14.801c-1.146-5.938,4.284-11.694,4.774-17.189l-4.774-5.49
				c-3.379-0.148-6.789-0.416-9.55,1.91C348.759,336.806,346.607,338.316,346.458,341.161z"/>
			<path id="path5759" sodipodi:nodetypes="cccccc" fill="#E20909" stroke="#000000" stroke-width="3" d="M380.595,324.45
				c3.937,6.087-0.993,11.19-2.147,16.711c7.05-2.646,16.227-2.005,16.71-14.801c-4.158,0.214-4.877-3.696-5.969-7.161
				c-1.636-2.241-3.956-1.069-6.206-0.239L380.595,324.45z"/>
			
				<path id="path6653" sodipodi:nodetypes="cccccccccccccccccccccccccccccccccccccccccccccccccccccccccccccccccccccccccccccc" fill="#FCEF3C" stroke="#000000" stroke-width="3" d="
				M467.74,144.183l-38.673-21.486c-30.733-2.321-55.528-0.857-86.897,5.729c-26.763,5.31-48.075,15.05-84.031,12.891l-95.968,9.55
				c5.155,21.51,1.554,38.095-3.342,53.952c8.209-8.761,13.282-10.469,19.098-13.847c-15.701,8.801-25.759,25.603-42.016,36.765
				c-14.586,10.446-28.067,19.631-44.403,25.305c-7.696,0.93-12.986,0.177-14.324-3.342c0.348-9.081,1.68-20.52-0.955-22.441
				l-5.729-0.954c-2.612,12.421-13.371,12.143-21.485,10.98c8.501,6.774,19.755,12.701,12.414,24.351
				c-19.748,14.336-29.583,8.479-30.557,21.008c7.834,2.739,14.653,6.26,14.323,15.278c7.863-12.218,17.183-12.776,26.26-15.278
				c5.936-1.32,5.513,3.717,5.252,8.594c-8.087,1.456-11.806,6.659-10.981,15.755c11.816-3.261,20.305,0.132,27.692,5.729
				c2.881,2.418,3.168-0.349,4.297-1.432l-1.909-11.936c-0.537-9.442,5.097-10.469,11.459-10.504
				c-1.114,12.254,2.864,17.189,11.936,14.801c-1.134-9.41,1.38-15.172,14.802-10.026c2.084-4.616,2.044-9.231,0.954-13.847
				c9.228-9.064,12.549-2.94,17.666-1.432c2.565,3.117,0.571,9.275-0.477,14.801c4.238-9.656,9.938-17.223,18.62-20.53
				c1.575,1.699,0.625,10.472-0.955,21.008c5.907-12.96,12.113-24.425,20.531-24.829c3.284,6.04,0.865,11.264,0,16.711
				c7.429-10.653,14.372-18.142,20.53-20.53c3.299,1.663,1.416,9.249,0.477,15.757c4.575-6.128,13.045-10.698,11.937-19.098
				c-0.058-6.632,2.648-6.631,5.729-5.729c4.591-1.853,7.346,0.579,8.117,7.639c0.604-11.575,6.467-14.736,13.369-16.233
				c4.067-0.057,3.893,7.663,4.297,14.323c2.427-11.738,5.176-23.154,13.847-28.648c4.496-2.531,4.92,4.433,5.729,10.504
				c1.655-11.032,5.191-17.927,10.027-21.962c4.968-3.044,4.753,2.981,4.774,8.594c14.162-43.106,31.618-44.225,54.429-51.088
				c32.723-11.507,47.753-14.453,66.844-15.755c7.704,17.887,18.553,33.443,28.648,47.745
				c28.495,34.795,72.745,27.247,110.292,37.719c15.351,8.9,21.572,19.43,19.098,31.512c-19.077-2.465-23.016,2.584-28.169,8.594
				c-6.885,3.434-11.57,1.825-14.802,5.251c12.504,5.132,15.148,10.969,19.099,16.711c6.68-9.745,14.219-9.211,21.485-11.936
				c8.146,0.81,5.276,5.995,2.864,8.594c-13.451-4.69-10.613,4.075-10.026,10.982c10.585-1.202,14.821,5.411,17.189,14.323
				c10.062-0.972,12.588-7.866,13.846-15.757c3.154,0.771,7.613-1.944,9.072,3.343l1.193,6.922l6.207,0.239
				c-4.213-15.709,15.445-13.016,20.292-10.026c3.737-1.616,4.528-4.915,3.82-9.071c-6.065-4.875-11.827-10.807-19.099-11.459
				c-1.241-9.835,4.327-12.862,11.937-13.846c-6.744-4.112-9.125-11.199-1.91-24.829c-7.062,0.52-15.315-1.347-20.053,3.821
				c-2.81-2.169-6.245-3.98-4.774-8.594c-1.551-3.204,3.264-2.937,8.594-2.387c0.114-3.184-3.32-6.366-13.369-9.55
				c1.716-3.746,6.092-5.317,14.8-3.342c-2.13-3.981-5.449-7.78-15.756-10.504c-0.003-2.037,6.202-5.314,12.414-8.594
				c-6.052-0.064-6.963-5.635-21.009,2.865c-2.347-7.595-2.053-13.539,5.73-14.801c-4.943-2.427-8.351-6.904-22.44,2.864
				c-1.304-5.169-1.227-9.944,1.91-13.846c-6.048,0.385-12.095,0.844-18.143,6.207c-30.727-5.739-52.986-21.158-65.888-47.267
				L467.74,144.183z"/>
			<path id="path7540" sodipodi:nodetypes="ccccc" fill="#E20909" stroke="#000000" stroke-width="3" d="M70.223,226.645
				c-19.33-15.148-30.301-8.683-37.138,4.726c13.322-4.889,16.38-1.679,14.18,5.064c6.415,0.747,12.829,1.609,19.244-2.025
				L70.223,226.645z"/>
			<path id="path8427" sodipodi:nodetypes="ccccc" fill="#E20909" stroke="#000000" stroke-width="3" d="M32.748,282.012
				c-5.791,5.765-12.739,11.336-12.154,20.594c0.192,10.473,7.661,12.659,15.868,14.855c-5.257-13.116-3.069-21.317,8.778-23.633
				L32.748,282.012z"/>
			<path id="path8429" sodipodi:nodetypes="ccccc" fill="#E20909" stroke="#000000" stroke-width="3" d="M68.872,305.645
				c-2.289,5.739-5.215,11.479,0.338,17.218c13.279,13.686,19.806,11.76,29.71,13.168c-12.399-7.167-14.607-15.791-8.103-25.658
				L68.872,305.645z"/>
			<path id="path8431" sodipodi:nodetypes="cccccc" fill="#E20909" stroke="#000000" stroke-width="3" d="M119.851,301.256
				c5.152,6.872,1.194,12.917-3.376,18.906c6.637-2.822,14.708-1.339,18.906-11.479c2.993-4.129,1.244-9.613-2.025-15.529
				l-10.466-1.351C119.725,294.093,118.517,297.166,119.851,301.256z"/>
			<path id="path8433" sodipodi:nodetypes="cccc" fill="#E20909" stroke="#000000" stroke-width="3" d="M530.723,297.205
				c-15.194,11.932-15.639,23.404-2.025,34.436c-2.28-14.77,7.914-17.069,13.842-23.633L530.723,297.205z"/>
			<path id="path8435" sodipodi:nodetypes="cccc" fill="#E20909" stroke="#000000" stroke-width="3" d="M559.42,318.475
				c-10.079,8.583-6.098,17.869,1.688,27.346c-0.641-10.722,7.335-13.787,14.518-17.556
				C571.862,323.09,568.423,317.537,559.42,318.475z"/>
			<path id="path8437" sodipodi:nodetypes="cccc" fill="#E20909" stroke="#000000" stroke-width="3" d="M606.011,326.577
				c5.954,0.429,9.865,4.492,7.765,19.243c9.795-4.006,16.249-11.593,13.505-29.035
				C618.633,316.936,606.352,309.817,606.011,326.577z"/>
			<path id="path8439" sodipodi:nodetypes="ccccc" fill="#E20909" stroke="#000000" stroke-width="3" d="M619.853,278.974
				c6.662,0.041,13.51-0.776,17.556,11.479c0.988-5.298,4.016-9.916,0-16.882c-4.627-5.877-9.524-11.321-18.568-10.128
				C618.087,268.621,615.56,273.798,619.853,278.974z"/>
		</g>
		<g id="g2044" transform="translate(-8.979625,-29.54435)" inkscape:label="tete">
			
				<path id="path2114" sodipodi:nodetypes="cccccccccccccccccccccccccccccccccccccccccccccccccccccccccc" fill="#FCEF3C" stroke="#000000" stroke-width="3" d="
				M226.746,43.866c1.985-5.924,4.544-9.262,7.427-11.141c4.846-2.344,8.649-1.908,12.154-0.676
				c7.562,4.164,6.727,8.327,8.103,12.491c0.777,5.104-0.989,8.68-2.363,12.492c-1.196,2.509-3.644,4.017-7.09,4.726l-12.492-0.336
				l12.323,1.012c0.305,6.632,1.286,13.039,6.921,17.894l6.752,3.039c-5.16,0.017-9.995,0.358-12.492,3.039
				c-0.723,4.125,2.352,5.971,6.077,7.427c1.803,1.345,3.723,2.458,6.415,2.027c-3.152,0.927-6.303,1.146-9.453,5.064
				c2.335,4.291,7.248,7.292,13.167,9.791c-3.895-0.234-9.642-1.702-11.141-0.338c2.175,3.884,5.834,5.54,9.791,6.751
				c-2.355,0.904-6.159,1.324-6.077,3.039c4.845,4.903,11.139,8.937,18.231,12.492c-4.931-0.88-10.463-2.36-12.829-0.676
				c1.475,5.639,8.159,9.417,15.868,12.83c-5.561-1.468-11.362-3.534-15.193-0.676c2.067,6.374,8.356,8.525,13.842,11.479
				c-5.639-0.925-10.996-1.286-14.855,1.351c4.004,5.348,9.05,9.393,14.855,12.491c-6.853-2.154-13.517-2.796-19.919-1.35
				c0.156,5.2,3.597,9.304,7.765,13.166c-7.039-4.828-14.47-8.874-23.295-10.128c-2.633,3.331-1.258,8.849,1.013,14.855
				c-4.496-5.788-9.066-11.418-16.205-11.479c-3.11,2.629-4.992,6.486-5.402,11.815c-1.964-5.562-4.694-9.705-9.791-9.452
				c-4.701,1.183-5.316,5.543-6.077,9.79c-1.705-5.091-1.756-11.63-6.752-13.842c-5.344,1.634-7.912,6.044-11.141,9.791
				c1.169-4.952,4.219-9.904,1.688-14.855c-5.64,4.537-12.04,4.513-18.568,3.714c3.843-3.611,6.799-7.786,5.739-14.517
				c-6.09,3.25-17.1,1.581-27.009,1.012c14.646-8.944,32.659-16.833,31.398-33.085c7.864,0.985,14.077,0.136,17.893-3.376
				c-5.014,2.468-11.211,3.357-17.556,4.052c-5.99-2.063-13.082-0.818-19.919-0.338c-9.949-2.018-24.982,9.29-21.607-10.467
				c0.563-3.376,1.126-5.402,4.727-6.077c9.289,5.639,15.179,4.476,21.944,5.065c9.596,2.159,8.919-2.932,11.479-5.739
				c5.069-9.624,2.103-16.436-1.688-22.959c-4.046-7.471-20.932-0.674-31.398-1.012c-3.296-0.326-5.24-1.599-4.051-5.065
				c-0.28-4.051-0.158-8.102,1.35-12.153c1.529-2.095,4.612-3.153,7.428-4.39l-7.765,2.025c-3.645-3.601-1.533-7.202,1.013-10.803
				c11.412-5.087,16.491-1.731,24.308-2.025c11.834,0.177,13.682-4.637,16.88-8.778c20.608-5.768,30.591-2.427,45.578-3.376V43.866z
				"/>
			<path id="path3002" sodipodi:nodetypes="ccccccccc" fill="#FCEF3C" stroke="#000000" stroke-width="2" d="M175.164,53.459
				c5.209-2.721,7.76-1.454,10.504-0.476c-5.397,2.179-6.767,5.304-4.536,10.026c3.961,4.473,5.581,2.304,8.356,2.625
				c1.314-1.509,3.054-2.644,3.104-6.683c2.584,1.97,4.712,4.169,4.774,7.4c1.601-4.717-3.956-6.852-3.581-8.117l-7.639-5.251
				C182.802,51.56,179.145,51.698,175.164,53.459z"/>
			<path id="path3004" sodipodi:nodetypes="ccccc" fill="#FCEF3C" stroke="#000000" stroke-width="3" d="M152.908,112.343
				c0.725-3.302,1.371-6.656,3.952-8.72c1.952,0.092,0.759,1.849,1.467,3.496l0.897,5.958L152.908,112.343z"/>
			<path id="path3006" sodipodi:nodetypes="cccc" fill="#FCEF3C" stroke="#000000" stroke-width="3" d="M145.443,102.518
				c-2.368,1.37-3.071,3.691-3.223,6.326l6.326,2.268C148.061,108.247,148.321,105.383,145.443,102.518z"/>
			<path id="path3008" sodipodi:nodetypes="cccc" fill="#FCEF3C" stroke="#000000" stroke-width="3" d="M143.056,84.493
				c1.156,3.649,3.3,7.015,6.684,10.028c2.361-2.472,2.287-7.031,2.506-11.34L143.056,84.493z"/>
			<path id="path3010" sodipodi:nodetypes="cccc" fill="#FCEF3C" stroke="#000000" stroke-width="3" d="M155.589,82.942
				l10.623-0.954c-2.422,3.825-4.016,8.476-7.878,10.861C155.82,90.258,155.247,86.802,155.589,82.942z"/>
			<path id="path3012" sodipodi:nodetypes="ccccccccccc" fill="#E20909" stroke="#000000" stroke-width="3" d="M177.792,99.571
				c-2.103-2.594-4.553-4.58-8.44-4.051c-11.479-0.17-22.324,2.199-34.437-0.507c-11.352-4.259-19.903-10.618-22.282-21.606
				c-1.214-0.759-2.309-1.933-4.389,0.338c-1.364,4.293-0.89,8.128-0.506,11.985c2.197,5.366,6.356,9.995,12.154,14.011
				c5.266,2.303,9.807,2.796,14.18,2.869l33.93-0.168l7.596,3.714L177.792,99.571z"/>
			<path id="path3023" sodipodi:nodetypes="cc" fill="#FCEF3C" stroke="#000000" stroke-width="3" d="M245.454,39.226
				c-7.917-5.705-17.905,1.081-11.985,13.674"/>
			<path id="path3025" sodipodi:nodetypes="cc" fill="#FCEF3C" stroke="#000000" stroke-width="3" d="M245.454,39.226
				c-7.917-5.705-17.905,1.081-11.985,13.674"/>
		</g>
	</g>
</g>
<g id="layer4" inkscape:label="Meubles" sodipodi:insensitive="true" inkscape:groupmode="layer">
</g>
<g id="layer2" inkscape:label="Reflet final" sodipodi:insensitive="true" inkscape:groupmode="layer">
	
		<radialGradient id="path2875_1_" cx="-369.1706" cy="608.4686" r="300" gradientTransform="matrix(1.3532 0 0 -1.3489 721.6022 1040.3379)" gradientUnits="userSpaceOnUse">
		<stop  offset="0" style="stop-color:#FFFFFF;stop-opacity:0.3137"/>
		<stop  offset="0.19" style="stop-color:#FFFFFF;stop-opacity:0.251"/>
		<stop  offset="0.6" style="stop-color:#6B6B6B;stop-opacity:0.1255"/>
		<stop  offset="1" style="stop-color:#000000;stop-opacity:0.1255"/>
	</radialGradient>
	
		<path id="path2875" inkscape:export-ydpi="144" inkscape:export-xdpi="144" sodipodi:nodetypes="cccccc" fill="url(#path2875_1_)" d="
		M300,658.5c0,0,298.5-112.32,298.5-397.771s0-258.552,0-258.552H1.5v258.552C1.5,546.18,300,658.5,300,658.5z"/>
</g>
<g id="layer1" inkscape:label="Contour final" sodipodi:insensitive="true" inkscape:groupmode="layer">
	
		<path id="path1411" inkscape:export-ydpi="144" inkscape:export-xdpi="144" sodipodi:nodetypes="cccccc" fill="none" stroke="#000000" stroke-width="3" d="
		M300,658.501c0,0-298.5-112.32-298.5-397.772c0-285.451,0-258.552,0-258.552h597v258.552C598.5,546.18,300,658.501,300,658.501z"/>
</g>
</svg>
